Coordinates
version=1
nRows=5
nColumns=107
inDegrees=yes

Units are S.I. units (second, meters, Newtons, ...)
If the header above contains a line with 'inDegrees', this indicates whether rotational values are in degrees (yes) or radians (no).

endheader
time	sternoclavicular_r2	sternoclavicular_r3	unrotscap_r3	unrotscap_r2	acromioclavicular_r2	acromioclavicular_r3	acromioclavicular_r1	unrothum_r1	unrothum_r3	unrothum_r2	elv_angle	shoulder_elv	shoulder1_r2	shoulder_rot	elbow_flexion	pro_sup	deviation	flexion	proximal_distal_r1	proximal_distal_r3	cmc_flexion	cmc_abduction	mp_flexion	ip_flexion	mcp2_flexion	mcp2_abduction	pm2_flexion	md2_flexion	mcp3_flexion	mcp3_abduction	pm3_flexion	md3_flexion	mcp4_flexion	mcp4_abduction	pm4_flexion	md4_flexion	mcp5_flexion	mcp5_abduction	pm5_flexion	md5_flexion	bicpt_tx	bicpt_ty	bicpt_tz	bicpt2_tx	bicpt2_ty	bicpt2_tz	ptpt_tx	ptpt_ty	ptpt_tz	FCUpt_tx	FCUpt_ty	FCUpt_tz	EDCpt_tx	EDCpt_ty	EDCpt_tz	APLpt_tx	APLpt_ty	APLpt_tz	FPLpt_tx	FPLpt_ty	FPLpt_tz	FPLpt2_tx	FPLpt2_ty	FPLpt2_tz	PEC1pt2_tx	PEC1pt2_ty	PEC1pt2_tz	PEC1pt3_tx	PEC1pt3_ty	PEC1pt3_tz	PEC2pt2_tx	PEC2pt2_ty	PEC2pt2_tz	PEC2pt3_tx	PEC2pt3_ty	PEC2pt3_tz	PEC3pt2_tx	PEC3pt2_ty	PEC3pt2_tz	PEC3pt3_tx	PEC3pt3_ty	PEC3pt3_tz	DELT2pt2a_tx	DELT2pt2a_ty	DELT2pt2a_tz	DELT2pt2_tx	DELT2pt2_ty	DELT2pt2_tz	LAT1pt2_tx	LAT1pt2_ty	LAT1pt2_tz	LAT1pt3_tx	LAT1pt3_ty	LAT1pt3_tz	LAT2pt2_tx	LAT2pt2_ty	LAT2pt2_tz	LAT2pt3_tx	LAT2pt3_ty	LAT2pt3_tz	LAT3pt2_tx	LAT3pt2_ty	LAT3pt2_tz	LAT3pt3_tx	LAT3pt3_ty	LAT3pt3_tz
      0.43333333	     -0.32008459	      0.13557273	     -0.13557273	      0.32008459	     -0.06481062	      0.52377662	      0.23543399	     -0.23543399	     -0.52377662	      0.06481062	     99.11515282	     75.78287231	     -1.72988576	    -22.51908164	     28.43656846	     16.32053705	     -0.05969507	     -0.99010944	     -0.08393136	     -0.49505472	     -6.81800533	     -3.07060435	    -32.69478452	      2.32471241	     13.00047645	      1.91040748	     17.28422467	    -30.28021087	     38.93606592	      8.39722586	     86.77434207	     74.20310615	     36.40112675	     -3.02529109	     90.54595720	     56.74535985	      3.12339282	     -7.44826267	    -16.54571512	      4.87440488	      0.00084059	     -0.03085927	     -0.00482498	      0.01588878	     -0.01792493	     -0.00960476	      0.00634410	     -0.06567976	     -0.00136471	      0.00548275	     -0.18390805	     -0.00000719	     -0.00195846	      0.00050352	      0.00016447	      0.00019205	      0.00007682	      0.00038410	      0.00024583	      0.00073748	      0.00041483	     -0.00063283	      0.00019628	      0.00023553	      0.00248400	      0.00871504	      0.00606263	     -0.00812561	      0.01961936	     -0.01860892	      0.00248400	      0.00871504	      0.00606263	      0.00054732	      0.01818790	     -0.00955707	      0.00393337	      0.00484632	      0.01593192	      0.00000000	      0.00768000	      0.00000000	     -0.00711518	     -0.03288137	     -0.00633194	      0.01518746	     -0.00051054	     -0.00422182	     -0.00088413	      0.01481977	     -0.00606263	      0.00244189	      0.02138763	     -0.01768269	     -0.00593633	      0.01284100	     -0.00543111	     -0.01237788	      0.02711345	     -0.03035528	     -0.02324010	      0.01435666	     -0.00728358	     -0.01540920	      0.03132361	     -0.03793357
      0.46666667	     -0.32134610	      0.13610704	     -0.13610704	      0.32134610	     -0.06506605	      0.52584092	      0.23636188	     -0.23636188	     -0.52584092	      0.06506605	     98.84832634	     76.08154633	     -1.72522875	    -21.00013327	     28.30260828	     14.78280913	     -0.06291435	     -1.01457281	     -0.08862303	     -0.50728640	     -6.83228845	     -2.74208715	    -32.06716657	      0.38706226	     13.09933206	      1.88297694	     18.11322861	    -31.84445218	     39.04731859	      8.38292297	     86.75529385	     74.26821369	     36.69084668	     -3.11098281	     90.53271099	     56.70997228	      3.58818082	     -7.47145045	    -17.66732480	      4.91097011	      0.00083616	     -0.03084391	     -0.00482251	      0.01579990	     -0.01788854	     -0.00971620	      0.00645772	     -0.06560629	     -0.00124083	      0.00533954	     -0.18392936	      0.00003204	     -0.00177393	      0.00045257	      0.00015513	      0.00017601	      0.00007041	      0.00035203	      0.00022530	      0.00067590	      0.00038019	     -0.00063516	      0.00019674	      0.00023608	      0.00249379	      0.00874939	      0.00608653	     -0.00815764	      0.01969668	     -0.01868226	      0.00249379	      0.00874939	      0.00608653	      0.00054948	      0.01825959	     -0.00959474	      0.00394470	      0.00486542	      0.01595973	      0.00000000	      0.00774107	      0.00000000	     -0.00714322	     -0.03301097	     -0.00638265	      0.01434672	     -0.00046285	     -0.00365318	     -0.00088762	      0.01487818	     -0.00608653	      0.00245152	      0.02147192	     -0.01775238	     -0.00595973	      0.01289161	     -0.00545252	     -0.01242666	      0.02722031	     -0.03047491	     -0.02333169	      0.01441324	     -0.00731229	     -0.01546993	      0.03144707	     -0.03808307
      0.50000000	     -0.32060087	      0.13579140	     -0.13579140	      0.32060087	     -0.06491515	      0.52462144	      0.23581373	     -0.23581373	     -0.52462144	      0.06491515	     99.00391340	     75.90510555	     -1.72794426	    -21.93561097	     28.37498635	     15.89333819	     -0.05984146	     -0.99949057	     -0.08414426	     -0.49974529	     -6.78848637	     -2.78733443	    -31.76904035	     -0.66296080	     13.11704050	      2.03289884	     18.52726193	    -33.10891646	     39.10977178	      8.58630181	     86.67475283	     75.14557852	     36.65100176	     -2.79771670	     90.72041237	     56.62983557	      3.80989183	     -7.21608774	    -18.24153913	      4.93930957	      0.00083856	     -0.03085221	     -0.00482385	      0.01586463	     -0.01790820	     -0.00963605	      0.00637566	     -0.06565935	     -0.00133029	      0.00544289	     -0.18391403	      0.00000353	     -0.00190720	      0.00048929	      0.00016200	      0.00018603	      0.00007441	      0.00037206	      0.00023812	      0.00071435	      0.00040182	     -0.00062739	      0.00019530	      0.00023436	      0.00248800	      0.00872909	      0.00607241	     -0.00813872	      0.01965101	     -0.01863894	      0.00248800	      0.00872909	      0.00607241	      0.00054820	      0.01821724	     -0.00957249	      0.00393801	      0.00485414	      0.01594333	      0.00000000	      0.00770496	      0.00000000	     -0.00712665	     -0.03293441	     -0.00635267	      0.01486816	     -0.00049212	     -0.00399926	     -0.00088556	      0.01484368	     -0.00607241	      0.00244583	      0.02142213	     -0.01771121	     -0.00594590	      0.01286171	     -0.00543987	     -0.01239784	      0.02715718	     -0.03040424	     -0.02327759	      0.01437981	     -0.00729533	     -0.01543405	      0.03137414	     -0.03799475
      0.53333333	     -0.31929097	      0.13523659	     -0.13523659	      0.31929097	     -0.06464993	      0.52247797	      0.23485025	     -0.23485025	     -0.52247797	      0.06464993	     99.35174233	     75.59497599	     -1.73401502	    -23.56353448	     28.33208373	     17.15721385	     -0.06936960	     -1.00930706	     -0.09808284	     -0.50465353	     -6.92244006	     -2.32894132	    -32.06025515	      0.27632752	     13.62836543	      2.03034589	     18.61366700	    -33.62620505	     39.47482671	      8.25168073	     86.65896583	     74.37025091	     37.07700289	     -3.25004241	     90.19252646	     57.21924047	      3.81757414	     -7.27733506	    -18.27223911	      4.92623901	      0.00083714	     -0.03084729	     -0.00482305	      0.01593487	     -0.01789655	     -0.00954273	      0.00628228	     -0.06571973	     -0.00143211	      0.00556098	     -0.18389617	     -0.00002779	     -0.00205886	      0.00053155	      0.00016901	      0.00017955	      0.00007182	      0.00035910	      0.00022982	      0.00068947	      0.00038783	     -0.00065101	      0.00019968	      0.00023962	      0.00247784	      0.00869343	      0.00604760	     -0.00810547	      0.01957072	     -0.01856278	      0.00247784	      0.00869343	      0.00604760	      0.00054596	      0.01814281	     -0.00953337	      0.00392623	      0.00483431	      0.01591432	      0.00000000	      0.00764170	      0.00000000	     -0.00709753	     -0.03279985	     -0.00630015	      0.01574768	     -0.00054383	     -0.00463279	     -0.00088194	      0.01478303	     -0.00604760	      0.00243584	      0.02133460	     -0.01763884	     -0.00592161	      0.01280916	     -0.00541764	     -0.01234719	      0.02704623	     -0.03028001	     -0.02318248	      0.01432106	     -0.00726552	     -0.01537099	      0.03124595	     -0.03783952
      0.56666667	     -0.31855360	      0.13492427	     -0.13492427	      0.31855360	     -0.06450062	      0.52127135	      0.23430788	     -0.23430788	     -0.52127135	      0.06450062	     99.51402818	     75.42039547	     -1.73684744	    -24.51165806	     28.39520114	     18.16898589	     -0.07123326	     -0.99888675	     -0.10082666	     -0.49944337	     -6.91374021	     -2.54670244	    -31.77120406	     -0.32175858	     13.63804771	      1.99206933	     18.58912976	    -34.01250144	     39.26449044	      8.24997543	     86.70589198	     74.24221204	     36.86095081	     -3.15286761	     90.25236131	     57.12071888	      3.58488995	     -7.17888114	    -18.24661397	      4.92818053	      0.00083923	     -0.03085452	     -0.00482422	      0.01598846	     -0.01791370	     -0.00946641	      0.00620752	     -0.06576807	     -0.00151361	      0.00565587	     -0.18388154	     -0.00005199	     -0.00218027	      0.00056573	      0.00017399	      0.00018642	      0.00007457	      0.00037284	      0.00023862	      0.00071585	      0.00040267	     -0.00064950	      0.00019940	      0.00023928	      0.00247212	      0.00867335	      0.00603364	     -0.00808675	      0.01952552	     -0.01851991	      0.00247212	      0.00867335	      0.00603364	      0.00054470	      0.01810091	     -0.00951136	      0.00391958	      0.00482314	      0.01589788	      0.00000000	      0.00760620	      0.00000000	     -0.00708114	     -0.03272410	     -0.00627067	      0.01624361	     -0.00057438	     -0.00501956	     -0.00087991	      0.01474889	     -0.00603364	      0.00243021	      0.02128533	     -0.01759811	     -0.00590794	      0.01277958	     -0.00540513	     -0.01231867	      0.02698376	     -0.03021008	     -0.02312894	      0.01428799	     -0.00724874	     -0.01533549	      0.03117379	     -0.03775213
